# xmcd CD database file
# Copyright (C) 1995-1998 Ti Kan
#
# Track frame offsets:
#	150
#	22876
#	34928
#	54282
#	70784
#	94113
#	110231
#	133856
#	149993
#	161128
#	178984
#	194904
#	209525
#	225046
#
# Disc length: 3135 seconds
#
# Revision: 1
# Processed by: cddbd v1.4b42PL0 Copyright (c) Steve Scherf et al.
# Submitted via: CDex 1.30PlusFR
#
DISCID=d70c3d0e
DTITLE=B.B. KING - GOLD
DYEAR=1900
DGENRE=Blues
TTITLE0=Paying the cost to be the boss
TTITLE1=Every day (I have the blues)
TTITLE2=Sweet sixteen
TTITLE3=Outside Help
TTITLE4=How blue you can get
TTITLE5=It's my own fault baby
TTITLE6=You've done lost you're good thing now
TTITLE7=The letter
TTITLE8=Catfish blues
TTITLE9=Evil child
TTITLE10=Long nights
TTITLE11=Mr Pawnbroker
TTITLE12=Walkin and  cryin
TTITLE13=I'm willing to run all the way
EXTD=ID3G:   0
EXTT0=
EXTT1=
EXTT2=
EXTT3=
EXTT4=
EXTT5=
EXTT6=
EXTT7=
EXTT8=
EXTT9=
EXTT10=
EXTT11=
EXTT12=
EXTT13=
PLAYORDER=
